<svg role="img" viewBox="0 0 24 24" xmlns="http://www.w3.org/2000/svg"><title>Java</title><path fill="none" stroke="#E76F00" stroke-linecap="round" stroke-width="1.6" d="M12.6 2.5c2.1 1.9-3.1 3.1-.2 5.3M10.2 4.5c1.7 1.6-2.7 2.6-.3 4.5M8 13.2c2.6.9 6.7.9 9.2-.1"/><path fill="#5382A1" d="M6.1 10.2h10.8l-.8 6.2c-.3 2.1-2 3.6-4.1 3.6s-3.8-1.5-4.1-3.6l-.8-6.2Z"/><path fill="#fff" d="M8.3 12h7.4l-.5 4.1c-.2 1.5-1.5 2.5-3.2 2.5s-3-1-3.2-2.5L8.3 12Z"/><path fill="#5382A1" d="M17 11.2h1.1c1 0 1.8.8 1.8 1.8s-.8 1.8-1.8 1.8h-1.5l.2-1.2h1.3c.3 0 .6-.3.6-.6s-.3-.6-.6-.6h-1.3l.2-1.2Z"/><path fill="#E76F00" d="M6.6 20.2h10.8v1.3H6.6z"/></svg>
